<?xml version="1.0" encoding="UTF-8" standalone="no"?>
<!-- Created by Vectric (http://www.vectric.com/) -->

<svg
   width="18in"
   height="18in"
   viewBox="0 0 18 18"
   id="svg2"
   version="1.1"
   sodipodi:docname="SinglePlateDesign.svg"
   inkscape:version="1.1.2 (b8e25be833, 2022-02-05)"
   xmlns:inkscape="http://www.inkscape.org/namespaces/inkscape"
   xmlns:sodipodi="http://sodipodi.sourceforge.net/DTD/sodipodi-0.dtd"
   xmlns="http://www.w3.org/2000/svg"
   xmlns:svg="http://www.w3.org/2000/svg">
  <defs
     id="defs894" />
  <sodipodi:namedview
     id="namedview892"
     pagecolor="#ffffff"
     bordercolor="#666666"
     borderopacity="1.0"
     inkscape:pageshadow="2"
     inkscape:pageopacity="0.0"
     inkscape:pagecheckerboard="0"
     inkscape:document-units="in"
     showgrid="false"
     width="18in"
     inkscape:zoom="0.36805556"
     inkscape:cx="-77.433962"
     inkscape:cy="421.13208"
     inkscape:window-width="1920"
     inkscape:window-height="1057"
     inkscape:window-x="-8"
     inkscape:window-y="-8"
     inkscape:window-maximized="1"
     inkscape:current-layer="3b9c1e92-d3d1-4151-8585-9dd6668aa59f" />
  <g
     inkscape:groupmode="layer"
     id="3b9c1e92-d3d1-4151-8585-9dd6668aa59f"
     inkscape:label="Layer 1"
     style="stroke:#000000">
    <path
       style="fill:none;stroke:#000000;stroke-width:0.01;stroke-linecap:round;stroke-linejoin:round;stroke-opacity:1"
       d="M 3.0214808,0.53902417 A 2.163386,2.163386 0 0 0 0.85809484,2.7024102 2.163386,2.163386 0 0 0 3.0214808,4.8657962 2.163386,2.163386 0 0 0 5.1848671,2.7024102 2.163386,2.163386 0 0 0 3.0214808,0.53902417"
       id="path824" />
    <path
       style="fill:none;stroke:#000000;stroke-width:0.01;stroke-linecap:round;stroke-linejoin:round;stroke-opacity:1"
       d="m 3.0214808,1.3500482 a 0.086614,0.086614 0 0 0 -0.08661,0.08661 0.086614,0.086614 0 0 0 0.08661,0.08662 0.086614,0.086614 0 0 0 0.08661,-0.08662 0.086614,0.086614 0 0 0 -0.08661,-0.08661"
       id="path826" />
    <path
       style="fill:none;stroke:#000000;stroke-width:0.01;stroke-linecap:round;stroke-linejoin:round;stroke-opacity:1"
       d="m 3.0214808,1.7240642 a 0.086614,0.086614 0 0 0 -0.08661,0.08661 0.086614,0.086614 0 0 0 0.08661,0.08661 0.086614,0.086614 0 0 0 0.08661,-0.08661 0.086614,0.086614 0 0 0 -0.08661,-0.08661"
       id="path828" />
    <path
       style="fill:none;stroke:#000000;stroke-width:0.01;stroke-linecap:round;stroke-linejoin:round;stroke-opacity:1"
       d="m 3.0214808,2.0154022 a 1.120079,1.120079 0 0 0 -1.120079,1.120079 1.120079,1.120079 0 0 0 1.120079,1.120078 1.120079,1.120079 0 0 0 1.120079,-1.120078 1.120079,1.120079 0 0 0 -1.120079,-1.120079"
       id="path830" />
    <path
       style="fill:none;stroke:#000000;stroke-width:0.01;stroke-linecap:round;stroke-linejoin:round;stroke-opacity:1"
       d="m 2.7734488,1.2240642 h 0.496063 v 2.956692 h -0.496063 v -2.956692"
       id="path832" />
    <path
       style="fill:none;stroke:#000000;stroke-width:0.01;stroke-linecap:round;stroke-linejoin:round;stroke-opacity:1"
       d="M 9.1300251,0.53902417 A 2.163386,2.163386 0 0 0 6.9666391,2.7024102 2.163386,2.163386 0 0 0 9.1300251,4.8657962 2.163386,2.163386 0 0 0 11.293411,2.7024102 2.163386,2.163386 0 0 0 9.1300251,0.53902417"
       id="path834" />
    <path
       style="fill:none;stroke:#000000;stroke-width:0.01;stroke-linecap:round;stroke-linejoin:round;stroke-opacity:1"
       d="m 9.1300251,1.3500482 a 0.086614,0.086614 0 0 0 -0.086614,0.08661 0.086614,0.086614 0 0 0 0.086614,0.08662 0.086614,0.086614 0 0 0 0.086614,-0.08662 0.086614,0.086614 0 0 0 -0.086614,-0.08661"
       id="path836" />
    <path
       style="fill:none;stroke:#000000;stroke-width:0.01;stroke-linecap:round;stroke-linejoin:round;stroke-opacity:1"
       d="m 9.1300251,1.7240642 a 0.086614,0.086614 0 0 0 -0.086614,0.08661 0.086614,0.086614 0 0 0 0.086614,0.08661 0.086614,0.086614 0 0 0 0.086614,-0.08661 0.086614,0.086614 0 0 0 -0.086614,-0.08661"
       id="path838" />
    <path
       style="fill:none;stroke:#000000;stroke-width:0.01;stroke-linecap:round;stroke-linejoin:round;stroke-opacity:1"
       d="m 9.1300251,2.0154022 a 1.120079,1.120079 0 0 0 -1.120079,1.120079 1.120079,1.120079 0 0 0 1.120079,1.120078 1.120079,1.120079 0 0 0 1.1200779,-1.120078 1.120079,1.120079 0 0 0 -1.1200779,-1.120079"
       id="path840" />
    <path
       style="fill:none;stroke:#000000;stroke-width:0.01;stroke-linecap:round;stroke-linejoin:round;stroke-opacity:1"
       d="m 8.8819931,1.2240642 h 0.496063 v 2.956692 h -0.496063 v -2.956692"
       id="path842" />
    <path
       style="fill:none;stroke:#000000;stroke-width:0.01;stroke-linecap:round;stroke-linejoin:round;stroke-opacity:1"
       d="m 10.375103,3.1354812 a 1.245079,1.245079 0 0 1 -1.2450779,1.245078 1.245079,1.245079 0 0 1 -1.245079,-1.245078 1.245079,1.245079 0 0 1 1.245079,-1.245079 1.245079,1.245079 0 0 1 1.2450779,1.245079"
       id="path844" />
    <path
       style="fill:none;stroke:#000000;stroke-width:0.01;stroke-linecap:round;stroke-linejoin:round;stroke-opacity:1"
       d="M 11.168411,2.7024102 A 2.038386,2.038386 0 0 0 9.1300251,0.66402417 2.038386,2.038386 0 0 0 7.0916391,2.7024102 a 2.038386,2.038386 0 0 0 2.038386,2.038386 2.038386,2.038386 0 0 0 2.0383859,-2.038386"
       id="path846" />
    <path
       style="fill:none;stroke:#000000;stroke-width:0.01;stroke-linecap:round;stroke-linejoin:round;stroke-opacity:1"
       d="m 8.9184111,1.4366622 a 0.211614,0.211614 0 0 1 0.211614,-0.211614 0.211614,0.211614 0 0 1 0.211614,0.211614 0.211614,0.211614 0 0 1 -0.211614,0.211615 0.211614,0.211614 0 0 1 -0.211614,-0.211615"
       id="path848" />
    <path
       style="fill:none;stroke:#000000;stroke-width:0.01;stroke-linecap:round;stroke-linejoin:round;stroke-opacity:1"
       d="M 7.2166391,2.7024102 A 1.913386,1.913386 0 0 0 9.1300251,4.6157962 1.913386,1.913386 0 0 0 11.043411,2.7024102 1.913386,1.913386 0 0 0 9.1300251,0.78902417 1.913386,1.913386 0 0 0 7.2166391,2.7024102"
       id="path850" />
    <path
       style="fill:none;stroke:#000000;stroke-width:0.01;stroke-linecap:round;stroke-linejoin:round;stroke-opacity:1"
       d="m 9.1300251,1.1000482 a 0.336614,0.336614 0 0 1 0.336614,0.336614 0.336614,0.336614 0 0 1 -0.271628,0.330282 1.370079,1.370079 0 0 1 1.3050919,1.368537 1.370079,1.370079 0 0 1 -1.3700779,1.370078 1.370079,1.370079 0 0 1 -1.370079,-1.370078 1.370079,1.370079 0 0 1 1.305093,-1.368537 0.336614,0.336614 0 0 1 -0.271628,-0.330282 0.336614,0.336614 0 0 1 0.336614,-0.336614"
       id="path852" />
    <path
       style="fill:none;stroke:#000000;stroke-width:0.01;stroke-linecap:round;stroke-linejoin:round;stroke-opacity:1"
       d="m 7.9327031,4.0308472 a 1.495079,1.495079 0 0 1 -0.297757,-0.895366 1.495079,1.495079 0 0 1 1.109786,-1.44458 0.461614,0.461614 0 0 1 -0.076321,-0.254239 0.461614,0.461614 0 0 1 0.461614,-0.46161403 0.461614,0.461614 0 0 1 0.461614,0.46161403 0.461614,0.461614 0 0 1 -0.076322,0.254239 1.495079,1.495079 0 0 1 1.1097859,1.44458 1.495079,1.495079 0 0 1 -0.297757,0.895366 1.788386,1.788386 0 0 0 0.591065,-1.328437 1.788386,1.788386 0 0 0 -1.7883859,-1.78838603 1.788386,1.788386 0 0 0 -1.788386,1.78838603 1.788386,1.788386 0 0 0 0.591064,1.328437"
       id="path854" />
    <path
       style="fill:none;stroke:#000000;stroke-width:0.01;stroke-linecap:round;stroke-linejoin:round;stroke-opacity:1"
       d="m 9.6189361,1.1124992 a 0.586614,0.586614 0 0 1 0.097703,0.324163 0.586614,0.586614 0 0 1 -0.02772,0.178196 1.620079,1.620079 0 0 1 1.0603379,1.468261 1.663386,1.663386 0 0 0 0.04415,-0.380709 1.663386,1.663386 0 0 0 -1.1744749,-1.589911"
       id="path856" />
    <path
       style="fill:none;stroke:#000000;stroke-width:0.01;stroke-linecap:round;stroke-linejoin:round;stroke-opacity:1"
       d="m 8.6411141,1.1124992 a 1.663386,1.663386 0 0 0 -1.174475,1.589911 1.663386,1.663386 0 0 0 0.044154,0.380709 1.620079,1.620079 0 0 1 1.060338,-1.468261 0.586614,0.586614 0 0 1 -0.02772,-0.178196 0.586614,0.586614 0 0 1 0.097703,-0.324163"
       id="path858" />
    <path
       style="fill:none;stroke:#000000;stroke-width:0.01;stroke-linecap:round;stroke-linejoin:round;stroke-opacity:1"
       d="m 8.4257811,1.5388152 -0.00737,-0.102153 0.00734,-0.101963 a 1.538386,1.538386 0 0 0 -0.725803,0.800692 1.745079,1.745079 0 0 1 0.725833,-0.596576"
       id="path860" />
    <path
       style="fill:none;stroke:#000000;stroke-width:0.01;stroke-linecap:round;stroke-linejoin:round;stroke-opacity:1"
       d="m 9.8416391,1.4366622 -0.00737,0.102153 a 1.745079,1.745079 0 0 1 0.7258329,0.596576 1.538386,1.538386 0 0 0 -0.7258059,-0.800692 l 0.00734,0.101963"
       id="path862" />
    <path
       style="fill:none;stroke:#ff0000;stroke-width:0.01;stroke-linecap:round;stroke-linejoin:round;stroke-opacity:1"
       d="m 6.3636121,5.8377212 a 0.086614,0.086614 0 0 0 -0.086615,0.08661 0.086614,0.086614 0 0 0 0.086615,0.08661 0.086614,0.086614 0 0 0 0.086614,-0.08661 0.086614,0.086614 0 0 0 -0.086614,-0.08661"
       id="path864" />
    <path
       style="fill:none;stroke:#ff0000;stroke-width:0.01;stroke-linecap:round;stroke-linejoin:round;stroke-opacity:1"
       d="m 6.3636121,6.2117372 a 0.086614,0.086614 0 0 0 -0.086615,0.08661 0.086614,0.086614 0 0 0 0.086615,0.08661 0.086614,0.086614 0 0 0 0.086614,-0.08661 0.086614,0.086614 0 0 0 -0.086614,-0.08661"
       id="path866" />
    <path
       style="fill:none;stroke:#000000;stroke-width:0.01;stroke-linecap:round;stroke-linejoin:round;stroke-opacity:1"
       d="m 6.1155791,5.7117362 h 0.496063 v 2.956693 h -0.496063 v -2.956693"
       id="path870" />
    <path
       style="fill:none;stroke:#ff0000;stroke-width:0.01;stroke-linecap:round;stroke-linejoin:round;stroke-opacity:1"
       d="M 6.3636121,5.0266972 A 2.163386,2.163386 0 0 0 4.2002258,7.1900832 2.163386,2.163386 0 0 0 6.3636121,9.3534681 2.163386,2.163386 0 0 0 8.5269971,7.1900832 2.163386,2.163386 0 0 0 6.3636121,5.0266972"
       id="path872" />
    <path
       style="fill:none;stroke:#0000ff;stroke-width:0.01;stroke-linecap:round;stroke-linejoin:round;stroke-opacity:1"
       d="m 6.3636121,9.2284681 a 2.038386,2.038386 0 0 0 2.038385,-2.0383849 2.038386,2.038386 0 0 0 -2.038385,-2.038386 2.038386,2.038386 0 0 0 -2.038386,2.038386 2.038386,2.038386 0 0 0 2.038386,2.0383849"
       id="path874" />
    <path
       style="fill:none;stroke:#0000ff;stroke-width:0.01;stroke-linecap:round;stroke-linejoin:round;stroke-opacity:1"
       d="m 6.3636121,5.2766972 a 1.913386,1.913386 0 0 0 -1.913386,1.913386 1.913386,1.913386 0 0 0 1.913386,1.9133849 1.913386,1.913386 0 0 0 1.913385,-1.9133849 1.913386,1.913386 0 0 0 -1.913385,-1.913386"
       id="path876" />
    <path
       style="fill:none;stroke:#0000ff;stroke-width:0.01;stroke-linecap:round;stroke-linejoin:round;stroke-opacity:1"
       d="m 6.3636121,5.4016972 a 1.788386,1.788386 0 0 0 -1.788386,1.788386 1.788386,1.788386 0 0 0 1.788386,1.788385 1.788386,1.788386 0 0 0 1.788385,-1.788385 1.788386,1.788386 0 0 0 -1.788385,-1.788386"
       id="path878" />
    <path
       style="fill:none;stroke:#0000ff;stroke-width:0.01;stroke-linecap:round;stroke-linejoin:round;stroke-opacity:1"
       d="m 6.3636121,5.5266972 a 1.663386,1.663386 0 0 0 -1.663386,1.663386 1.663386,1.663386 0 0 0 1.663386,1.663385 1.663386,1.663386 0 0 0 1.663385,-1.663385 1.663386,1.663386 0 0 0 -1.663385,-1.663386"
       id="path880" />
    <path
       style="fill:none;stroke:#0000ff;stroke-width:0.01;stroke-linecap:round;stroke-linejoin:round;stroke-opacity:1"
       d="m 6.0240301,8.6905172 a 1.538372,1.538372 0 0 1 -1.198804,-1.500434 1.538386,1.538386 0 0 1 1.538386,-1.538386 1.538386,1.538386 0 0 1 1.538385,1.538386 1.538379,1.538379 0 0 1 -1.198793,1.500432 1.120055,1.120055 0 0 1 -0.339592,0.052717 1.12002,1.12002 0 0 1 -0.339582,-0.052715"
       id="path882" />
    <path
       style="fill:none;stroke:#0000ff;stroke-width:0.01;stroke-linecap:round;stroke-linejoin:round;stroke-opacity:1"
       d="m 5.4459021,8.2640972 a 2.312677,2.312677 0 0 1 -6.78e-4,2.59e-4 1.119741,1.119741 0 0 1 -0.173052,-0.389678 1.288157,1.288157 0 0 1 -0.196946,-0.684595 1.288386,1.288386 0 0 1 1.288386,-1.288386 1.288386,1.288386 0 0 1 1.288385,1.288386 1.288305,1.288305 0 0 1 -0.196891,0.684499 1.11916,1.11916 0 0 1 -0.173785,0.389515 l 0.025028,-0.020969 0.110308,-0.110308 0.097205,-0.121407 0.08259,-0.130126 0.067035,-0.136242 0.051128,-0.139693 0.035431,-0.140572 0.020432,-0.139102 0.00652,-0.135595 -0.00652,-0.135596 -0.020432,-0.139102 -0.035431,-0.140572 -0.051128,-0.139693 -0.067035,-0.136242 -0.08259,-0.130126 -0.097205,-0.121407 -0.110308,-0.110308 -0.121407,-0.09721 -0.130126,-0.08259 -0.136242,-0.06704 -0.139693,-0.05113 -0.140572,-0.03543 -0.139102,-0.02043 -0.135595,-0.0065 -0.135596,0.0065 -0.139102,0.02043 -0.140572,0.03543 -0.139693,0.05113 -0.136242,0.06704 -0.130126,0.08259 -0.121407,0.09721 -0.110308,0.110308 -0.097205,0.121407 -0.08259,0.130126 -0.067035,0.136242 -0.051128,0.139693 -0.035431,0.140572 -0.020432,0.139102 -0.00652,0.135596 0.00652,0.135595 0.020432,0.139102 0.035431,0.140572 0.051128,0.139693 0.067035,0.136242 0.08259,0.130126 0.097205,0.121407 0.110308,0.110308 0.025028,0.02097"
       id="path884" />
    <path
       style="fill:none;stroke:#0000ff;stroke-width:0.01;stroke-linecap:round;stroke-linejoin:round;stroke-opacity:1"
       d="m 5.3259501,7.2030982 -7.24e-4,-0.01301 0.00641,-0.115209 0.020195,-0.118344 0.03511,-0.119097 0.050609,-0.117091 0.066008,-0.112113 0.08055,-0.104164 0.093485,-0.09349 0.104164,-0.08055 0.112113,-0.06601 0.117091,-0.05061 0.119097,-0.03511 0.118344,-0.0202 0.115209,-0.0064 0.115208,0.0064 0.118344,0.0202 0.119097,0.03511 0.117091,0.05061 0.112113,0.06601 0.104164,0.08055 0.093486,0.09349 0.08055,0.104164 0.066007,0.112113 0.050609,0.117091 0.03511,0.119097 0.020195,0.118344 0.00641,0.115209 -7.24e-4,0.01301 -1.52e-4,0.0027 0.025509,0.06437 0.032435,0.119365 0.01868,0.11832 5.16e-4,0.01002 0.023159,-0.08523 0.019404,-0.122848 0.00618,-0.119712 -0.00618,-0.119713 -0.019402,-0.122894 -0.033689,-0.12398 -0.048599,-0.12264 -0.063584,-0.118662 -0.078022,-0.111992 -0.091276,-0.102757 -0.102758,-0.09128 -0.111991,-0.07802 -0.118662,-0.06358 -0.12264,-0.0486 -0.123981,-0.03369 -0.122894,-0.0194 -0.119712,-0.0062 -0.119713,0.0062 -0.122894,0.0194 -0.12398,0.03369 -0.122641,0.0486 -0.118662,0.06358 -0.111991,0.07802 -0.102757,0.09128 -0.091276,0.102757 -0.078023,0.111992 -0.063584,0.118662 -0.048599,0.12264 -0.033689,0.12398 -0.019402,0.122894 -0.00617,0.119713 0.00617,0.119712 0.019402,0.122895 0.023159,0.08523 5.17e-4,-0.01002 0.018679,-0.11832 0.032435,-0.119365 0.025509,-0.06437 -1.52e-4,-0.0027"
       id="path886" />
    <path
       style="fill:none;stroke:#0000ff;stroke-width:0.01;stroke-linecap:round;stroke-linejoin:round;stroke-opacity:1"
       d="m 5.7659691,6.6763952 a 0.788227,0.788227 0 0 1 0.597643,-0.274698 0.788306,0.788306 0 0 1 0.597595,0.274642 l 0.095487,0.06692 0.098933,0.08788 0.078333,0.08819 -0.021093,-0.06546 -0.052545,-0.110471 -0.068224,-0.104299 -0.082625,-0.09488 -0.094879,-0.08262 -0.104299,-0.06822 -0.110471,-0.05255 -0.113299,-0.03651 -0.112978,-0.02098 -0.109935,-0.0066 -0.109936,0.0066 -0.112978,0.02098 -0.113299,0.03651 -0.110471,0.05255 -0.104299,0.06822 -0.094879,0.08262 -0.082625,0.09488 -0.068224,0.104299 -0.052545,0.110471 -0.021093,0.06546 0.078333,-0.08819 0.098933,-0.08788 0.09544,-0.06686"
       id="path888" />
    <path
       style="fill:none;stroke:#ff0000;stroke-width:0.01;stroke-linecap:round;stroke-linejoin:round;stroke-opacity:1"
       d="m 6.3636121,6.5030742 a 1.120079,1.120079 0 0 0 -1.120079,1.120079 1.120079,1.120079 0 0 0 1.120079,1.120079 1.120079,1.120079 0 0 0 1.120078,-1.120079 1.120079,1.120079 0 0 0 -1.120078,-1.120079"
       id="path868" />
  </g>
</svg>
